<svg width="63" height="63" viewBox="0 0 63 63" fill="none" xmlns="http://www.w3.org/2000/svg">
<g clip-path="url(#clip0)">
<path d="M62.8061 40.3418C62.6092 40.0646 62.2903 39.8999 61.9503 39.8997H52.5004V9.44994C52.5004 8.87008 52.0303 8.39995 51.4504 8.39995H48.3004V5.24997C48.3004 4.67011 47.8303 4.19997 47.2504 4.19997H22.0506C22.0506 1.88041 20.1702 0 17.8506 0C15.5311 0 13.6506 1.88041 13.6506 4.19997H10.5007C9.92081 4.19997 9.45067 4.67011 9.45067 5.24997V39.8997H1.05072C0.470865 39.8999 0.000862122 40.37 0.000862122 40.9499C0.000862122 41.1268 0.0456181 41.3008 0.13093 41.4558L11.6809 62.4557C11.8654 62.7912 12.2178 62.9996 12.6007 62.9996H54.6004C55.0499 63.0125 55.4529 62.7238 55.5853 62.294H55.5916L62.9415 41.2941C63.053 40.9735 63.0026 40.6187 62.8061 40.3418ZM48.3004 48.2997V10.4999H50.4004V52.1353L48.291 48.2997H48.3004ZM17.8506 2.09999C19.0105 2.09999 19.9506 3.04012 19.9506 4.19997H15.7506C15.7506 3.04012 16.6909 2.09999 17.8506 2.09999ZM11.5507 6.29996H19.9506V9.44994C19.9506 10.0298 19.4805 10.4999 18.9006 10.4999C18.3208 10.4999 17.8506 10.0298 17.8506 9.44994V8.39995H15.7506V9.44994C15.7506 11.1896 17.1609 12.5999 18.9006 12.5999C20.6403 12.5999 22.0506 11.1896 22.0506 9.44994V6.29996H46.2004V44.4987L43.9703 40.4436C43.7857 40.1082 43.4333 39.8999 43.0505 39.8997H11.5507V6.29996ZM13.2212 60.8996L2.82626 41.9997H42.4299L52.8248 60.8996H13.2212ZM54.3904 59.3824L52.5004 55.9531V41.9997H60.4698L54.3904 59.3824Z" fill="black"/>
<path d="M52.5001 4.19997H50.4001V6.29996H52.5001C53.6599 6.29996 54.6001 7.2401 54.6001 8.39995V23.0999H56.7V8.39995C56.7 6.08038 54.8196 4.19997 52.5001 4.19997Z" fill="black"/>
<path d="M56.7 25.1998H54.6001V27.2998H56.7V25.1998Z" fill="black"/>
<path d="M7.35035 20.9999H5.25036V35.6998H7.35035V20.9999Z" fill="black"/>
<path d="M7.35035 16.7999H5.25036V18.8999H7.35035V16.7999Z" fill="black"/>
<path d="M35.7002 13.6499H32.5502V10.4999C32.5502 9.92008 32.0801 9.44994 31.5002 9.44994H27.3002C26.7204 9.44994 26.2502 9.92008 26.2502 10.4999V13.6499H23.1003C22.5204 13.6499 22.0503 14.1201 22.0503 14.6999V18.8999C22.0503 19.4797 22.5204 19.9499 23.1003 19.9499H26.2502V23.0999C26.2502 23.6797 26.7204 24.1499 27.3002 24.1499H31.5002C32.0801 24.1499 32.5502 23.6797 32.5502 23.0999V19.9499H35.7002C36.28 19.9499 36.7502 19.4797 36.7502 18.8999V14.6999C36.7502 14.1201 36.28 13.6499 35.7002 13.6499ZM34.6502 17.8499H31.5002C30.9203 17.8499 30.4502 18.32 30.4502 18.8999V22.0499H28.3502V18.8999C28.3502 18.32 27.8801 17.8499 27.3002 17.8499H24.1502V15.7499H27.3002C27.8801 15.7499 28.3502 15.2798 28.3502 14.6999V11.5499H30.4502V14.6999C30.4502 15.2798 30.9203 15.7499 31.5002 15.7499H34.6502V17.8499Z" fill="black"/>
<path d="M18.9003 26.2498H16.8003V28.3498H18.9003V26.2498Z" fill="black"/>
<path d="M43.0501 26.2498H21.0003V28.3498H43.0501V26.2498Z" fill="black"/>
<path d="M43.0501 30.4498H14.7003V32.5498H43.0501V30.4498Z" fill="black"/>
<path d="M38.8502 34.6498H14.7003V36.7498H38.8502V34.6498Z" fill="black"/>
<path d="M43.9804 9.44994H41.8206V11.5499H43.9804V9.44994Z" fill="black"/>
<path d="M44.1001 13.6499H42.0001V15.7499H44.1001V13.6499Z" fill="black"/>
</g>
<defs>
<clipPath id="clip0">
<rect width="63" height="63" fill="white"/>
</clipPath>
</defs>
</svg>
